#tb 0: 1/1
#media_type 0: video
#codec_id 0: rawvideo
#dimensions 0: 160x60
#sar 0: 1/1
0,          0,          0,        1,    14400, 0x2a0cad5b
0,          1,          1,        1,    14400, 0x2ede9d0e
0,          2,          2,        1,    14400, 0xcf949579
0,          3,          3,        1,    14400, 0x8be280f0
0,          4,          4,        1,    14400, 0x017394a6
0,          5,          5,        1,    14400, 0x488283ea
0,          6,          6,        1,    14400, 0x4f2e9e00
0,          7,          7,        1,    14400, 0x9fc089d0
0,          8,          8,        1,    14400, 0x0b59af35
0,          9,          9,        1,    14400, 0x193b9db6
